<svg xmlns="http://www.w3.org/2000/svg" viewBox="0 0 597.31 249.07"><defs><style>.cls-1{fill:#231f20;}.cls-2,.cls-4{fill:#fff;}.cls-3{fill:#7ea679;}.cls-4{font-size:51.6px;stroke:#000;stroke-miterlimit:10;font-family:Constantia;}.cls-5{letter-spacing:-0.02em;}.cls-6{letter-spacing:-0.02em;}.cls-7{letter-spacing:-0.01em;}</style></defs><title>logo</title><g id="Layer_1" data-name="Layer 1"><path class="cls-1" d="M319.18,207c-2.82,16-17.52,28.57-27.41,40.56-11.11,13.47-22,27.2-30.72,42.37-14.66,25.55-22.73,56.84-12.94,84.6a78.41,78.41,0,0,0,27.16,36.33c17,12.67,39.94,18.56,60,11.66,22.39-7.71,37.18-29.54,44.22-52.06s7.94-46.42,11.95-69.66c5.32-30.75,16.51-61,36.28-85.25,13.19-16.16,31.43-29.9,52.31-31.17,12.12-.74,24.24,2.81,34.9,8.6,37.4,20.32,54.9,66.21,52.88,108.58s-19.14,89.78-42.64,124.87Z" transform="translate(-107.18 -179.99)"/><path class="cls-1" d="M318.9,207.3c-4.22-4,.67,1.85,4.87,6.9l5,3.49Z" transform="translate(-107.18 -179.99)"/><path class="cls-1" d="M340.65,231l12,10.92-8.45-8.09c-8.4-9.9,2.17.33,5.7,3.74C335.13,222.27,343.5,233,340.65,231Z" transform="translate(-107.18 -179.99)"/><path class="cls-1" d="M363.17,253.5c7,7.63,5.66,4.94,2.87,1.58C365.31,254.83,360.38,250.15,363.17,253.5Z" transform="translate(-107.18 -179.99)"/><path class="cls-1" d="M400.67,255.13c1.29-2.67,2.81-5.82,2.82-5.27.55-1.57.91-2.51.53-2A72,72,0,0,0,400.67,255.13Z" transform="translate(-107.18 -179.99)"/><path class="cls-1" d="M403.49,249.86l-.71,2,.73-1.85C403.56,249.83,403.49,249.92,403.49,249.86Z" transform="translate(-107.18 -179.99)"/><path class="cls-1" d="M551.6,246.76a83.45,83.45,0,0,1,4.85,13.2c1.13,4.1,2,8.18,3,13.34,0,1,0,2-.07,3s0,2-.13,3c.42,2.8.65,4.51.84,5.63a14.68,14.68,0,0,0,.48,2.06,10.54,10.54,0,0,1,.46,1.49,24.92,24.92,0,0,1,.54,3.95c-.1,2.61-.22,5.92-.44,9.52s-.49,7.53-.94,11.27c-.73,7.47-1.87,14.23-2.37,16.69-1.13,3.33.18-4.38.14-6.1-.47,3.36-.85,5.82-1.08,7.9s-.52,3.75-.75,5.53-.51,3.67-1.07,6.12-1.22,5.52-2.46,9.59l-.35.19a241.56,241.56,0,0,1-25.78,61.77l-.54,1-.41.68-.84,1.38c-.26.83-.66,0-1-.27l-1.13-1.14L511,404.39c-8.37-8.74-16.68-17.37-24.76-25.64a8.63,8.63,0,0,1,2.08,2.92C454.63,346.31,416,305.24,387.79,278.76c18.26,19.06,47.69,52.79,67.44,71.16,6.28,7.77,17.56,18.23,19.63,21.95,13,14.15,22.47,23.76,31.88,33.19l14.11,14.17c1,.95,1.93,1.93,2.93,2.94l.73.74c.12.11.25.3.37.33l.29-.48,1.18-1.91c.79-1.3,1.63-2.56,2.41-4l3.33-5.67c2.7-4.51,1.91-2,3.07-3.12-1.14,2.14-2.24,4.31-3.48,6.4l-1.81,3.14c-.54,1-1.1,1.93-1.7,2.88l-1.78,2.88-.91,1.46-.23.37-.11.18-.06.09s0,0-.07,0l-.57-.6L519.72,420l2.86,3.2,1.46,1.63.74.82c.12.12.25.33.36.36l.3-.43c1.55-2.33,3.23-4.67,4.81-7.18-.86,1.74-2.34,4-3.9,6.57l-.6,1-.31.49-.15.25-.08.12s-.07-.05-.1-.07l-1.59-1.66-3.23-3.35c-2.18-2.25-4.11-4.22-5.68-5.74a19.43,19.43,0,0,0-3.3-2.8l3.53,3.5,3.78,3.81,4.14,4.25,2.09,2.15.27.28.13.12.1-.16.42-.66.83-1.33,3.35-5.33c1-1.75,2.06-3.51,3.1-5.28s2-3.54,3-5.32,2-3.55,2.86-5.38c3.77-7.18,7-14.54,9.77-21.35a180.5,180.5,0,0,0,6.28-18.65,312.64,312.64,0,0,1-13.61,33.22c-1.34,2.37-3.08,5.38-4.45,7.72s-2.57,3.94-2.65,3.58c2-3.92,3.79-7.86,5.61-11.7s3.43-7.68,5-11.51,3-7.63,4.5-11.41,2.78-7.62,4-11.49c2.56-7.68,4.73-15.53,6.58-23.67A197,197,0,0,0,564,313c.12-1.13.23-2.3.36-3.49s.16-2.41.24-3.63c.17-2.43.38-4.84.45-7s.13-4.11.21-5.6a16.78,16.78,0,0,1,.22-2.9c.31,5.89.64,1.43.88,6.29a32.76,32.76,0,0,0-.5-5.86,7,7,0,0,0-.64-1.83c-.48-1-.6-2.74-1.59-11.82.69.7,1.33,1.41,2,2.13-1.3-3.55-2-9.1-3.28-15.34-.61-3.12-1.41-6.38-2.37-9.63a60.35,60.35,0,0,0-3.66-9.37c-.55-2.32.06-1.51,1.29,1.08A84.26,84.26,0,0,1,561.9,258,59.86,59.86,0,0,0,558,246.88c-1.24-2.57-2.36-4.86-4.32-9L555,239.7l1.2,1.85c.82,1.23,1.58,2.49,2.34,3.76a123.37,123.37,0,0,1-5.76-11.87c-.74-1.8-1.5-3.44-2.13-5s-1.32-3-2-4.19c-.34-.18,0,1-.46.85-.23-.05-.64-.41-1.41-1.41L543,218.62c-3.09-4.27-1.15-2.37-1.77-3.47-.76-.26-3.89-3.44-9.84-8.88-.38-.68.73.1,2,1a16.2,16.2,0,0,0,3.08,2.21c-4.31-4.42-8.23-7.57-11.59-10.56a31.41,31.41,0,0,0-4-2.37c-.51-.22-.37,0-.13.25.49.54,1.4,1.36-1.53-.19-3.46-2.27-5.34-3.39-6.16-4s-.62-.79-.1-.82c1,0,3.33.5.78-1.43a85.11,85.11,0,0,1,9,4.76,87.11,87.11,0,0,1,8.44,6,108.9,108.9,0,0,1,11.7,11,91.89,91.89,0,0,0-8.77-8.88,88.92,88.92,0,0,0-9.87-7.63c.38.11-.23-.53-1.26-1.35s-2.43-1.89-3.59-2.68-2-1.42-1.78-1.45a3.74,3.74,0,0,1,1.15.44,33.55,33.55,0,0,1,3.21,1.7,77.66,77.66,0,0,0-17.79-8.8A63.4,63.4,0,0,0,483.48,180,59,59,0,0,0,463,184a76.15,76.15,0,0,0-16.86,9.29c2.91-1.82,6.8-3.89,6.35-3.23-5.28,3.28-7.43,5-8.79,5.71s-1.73.73-2.85,1.37a37.16,37.16,0,0,0-3.73,3.69,17.83,17.83,0,0,0-1.81,2.42l-1.24,2c-.44.73-1,1.57-1.8,2.69-.86.78-1.6,1.59-2.34,2.33s-1.42,1.46-2,2.16l-1.8,2-1.55,1.87c-2,2.36-3.53,4.43-5,6.4-2.9,4-5.64,7.71-10,14.38l1.34-.38a53,53,0,0,0-5.49,10.77c-.63,1.53-1.21,3.11-1.95,5l-1.28,3c-.46,1.13-1,2.36-1.6,3.73-.22.27,0-.69.48-2.16.23-.73.49-1.6.8-2.49l1-2.69c-1,2.48-1.72,4.29-2.35,5.74s-1.19,2.55-1.68,3.67-1,2.21-1.57,3.66-1.13,3.27-1.85,5.77c.5-2.73,1-5.48,1.6-8.21l-1.07,3.1-1,3.24c-.7,2.15-1.27,4.25-1.79,6-1.05,3.4-1.62,5.3-1.55,3.09-1.4,7.18-3.41,17-4.89,27.32s-2.61,21-3.5,29.79l-.69-1.28a135.89,135.89,0,0,1-2.92,20.91c-.8,4-1.78,7.91-2.63,11.29s-1.66,6.21-2,8.15l-.79,1.1a97.47,97.47,0,0,1-6.7,16.51,20.42,20.42,0,0,1-2.5,3.45,3.64,3.64,0,0,1-1.21,1c-.46.17-.36-.4-.39,0a64.17,64.17,0,0,1-16.21,16.71,46,46,0,0,1-16.77,7.45,7.79,7.79,0,0,1-1.58.76,17.33,17.33,0,0,1-2.83.86,30.83,30.83,0,0,1-3.89.73l-2.28.28-2.47.12-1.29.05-1.32,0c-.89,0-1.8,0-2.73-.1-1.84-.18-3.75-.32-5.65-.68s-3.81-.77-5.69-1.2-3.7-1-5.44-1.7A76.26,76.26,0,0,1,283,413.5a81.62,81.62,0,0,1-10.93-8,83.63,83.63,0,0,1-9.47-9.81A78.07,78.07,0,0,1,255,384.36a66.69,66.69,0,0,1-5.39-12.56c-.34-1.09-.71-2.17-1-3.27l-.78-3.34-.39-1.67-.28-1.69-.55-3.39a92.94,92.94,0,0,1,.93-27.45,125,125,0,0,1,8-26.32,165.72,165.72,0,0,1,12.83-24.05c4.85-7.63,10.12-14.88,15.5-21.9q4-5.27,8.1-10.37c2.69-3.4,5.54-6.64,8.35-9.87a100.83,100.83,0,0,0,10.6-14,54.18,54.18,0,0,0,4.37-8.59,40.38,40.38,0,0,0,2.44-9.08,41.22,41.22,0,0,1-2.88,8.63,64,64,0,0,1-3.1,5.86A83.21,83.21,0,0,1,302.11,234c-3.92,4.22-6.9,6.86-9.7,9.46s-5.43,5.08-8.87,8.73l4-3.33c-4.66,6.32-6.42,8.38-7.93,10.12a58.45,58.45,0,0,0-6.06,8.45l-.95-1.34a70.23,70.23,0,0,1-5.52,8.28l-6,8.13c-.41,1.37-.83,2.71-1.21,4.08-5.6,8.33-8.4,14.32-10.57,16.75.42-.18.87-.35,1.3-.51a17.86,17.86,0,0,0-1.22,2.45c-.51,1.2-1.21,2.68-1.84,4.39-1.31,3.4-2.72,7.56-3.77,11.31-.5,1.89-1.06,3.63-1.4,5.14s-.69,2.75-.95,3.55c-.51,1.61-.77,1.52-.56-1.55-.09.74-.17,1.47-.26,2.24s-.1,1.61-.17,2.55-.17,2-.32,3.19-.22,2.62-.41,4.24l-1.08.92c-.1,1.19-.06,2.41-.1,3.62s-.08,2.42,0,3.61.09,2.38.14,3.52c0,.57,0,1.13.06,1.68s.1,1.1.15,1.62c.28,4.22.86,7.56.77,9-.5-2.57-1-4.27-1.31-5.56a28,28,0,0,0-.89-3c.11,1.29.22,2.5.32,3.65l.51,3.22c.17,1,.32,2,.49,2.84l.62,2.46a41.08,41.08,0,0,0,2.2,6.74c.32.78.6,1.41.85,1.92a14,14,0,0,0,.75,1.22,6.36,6.36,0,0,0,1.13,1.25,10.34,10.34,0,0,1,2.7,3.31c.7,1.15,1.62,2.74,3,5s3.14,5.1,5.75,8.65l-.76,0a77.9,77.9,0,0,0,6.18,6.53,80,80,0,0,0,6.11,7.19c2.76,1.71,6.54,4.47,11.32,7.35a91.78,91.78,0,0,0,16.88,8.06A70.48,70.48,0,0,0,315.45,429a50.88,50.88,0,0,0,18.29-2.62,72.93,72.93,0,0,0,14-5.65,57.49,57.49,0,0,0,16.15-13c-.47.05-.94.1-1.42.13a75,75,0,0,0,9.61-11.61,108,108,0,0,0,10.09-19,175,175,0,0,0,6.69-20.16c1.67-6.06,2.94-11.06,3.94-13.86.94-11.74-.37,1.19-1.13.82.63-5.72,1.08-10.06,1.55-13.55s.9-6.13,1.37-8.43c.92-4.59,1.86-7.82,3-13.51.8-6.75.31-4.21-.34-.88s-1.36,7.49-1.22,3.78c.94-5.16,1.52-8.76,2-11.67l1.11-7.55c.16-1.2.37-2.43.62-3.79s.52-2.88.95-4.61a122.71,122.71,0,0,1,4.17-13.9c.65-1.12.24.48-.4,2.68s-1.38,5.05-1.6,6.36a139.16,139.16,0,0,1,4.5-15.38,156.64,156.64,0,0,1,7.8-18.06,148.65,148.65,0,0,1,10.91-18.19c1.05-1.43,2-2.89,3.12-4.28l3.23-4.12c2.19-2.64,4.43-5.16,6.71-7.49a100.35,100.35,0,0,1,8.89-7.62,77.22,77.22,0,0,1,10.58-6.69c7.57-3.95,16.25-6.5,25.06-6.22s17.9,3,26,7.26a78.73,78.73,0,0,1,20.91,16.23l.7.2c2.26,2.73,4.5,5.54,6.68,8.51s4.24,6.13,6.22,9.44a98.79,98.79,0,0,1,9.75,22.08l-.52-2-.57-2C552.45,249.37,552,248.07,551.6,246.76Z" transform="translate(-107.18 -179.99)"/><path class="cls-1" d="M504.9,408l1.4,2.71,12.48,12.45c-.73-.89-1.39-1.7-2-2.45-.5-.6-1-1.16-1.46-1.7-.95-1.08-1.9-2.08-2.91-3.13C510.36,413.78,508.06,411.49,504.9,408Z" transform="translate(-107.18 -179.99)"/><polygon class="cls-1" points="402.07 228.9 395.75 222.74 405.57 233.1 402.07 228.9"/><path class="cls-1" d="M559.91,245.77c.23.7.42,1.41.63,2.11a137.12,137.12,0,0,1,8,31.34A136.17,136.17,0,0,0,559.91,245.77Z" transform="translate(-107.18 -179.99)"/><path class="cls-1" d="M400.34,253.69a57.14,57.14,0,0,1,2.29-6.09c1-2.11,1.86-4.27,2.66-6.07-1.12,2.3-2.08,4.68-3.12,7s-1.94,4.73-2.78,7.15C399.71,255,400,254.35,400.34,253.69Z" transform="translate(-107.18 -179.99)"/><path class="cls-1" d="M361.78,390.65a19.31,19.31,0,0,1-1.52,3.44,18.46,18.46,0,0,1-1.47,2.1c-.67.83-.41.51,2.19-1.91,2.24-3.5,2.14-3.89,1.7-3.62S361.33,391.76,361.78,390.65Z" transform="translate(-107.18 -179.99)"/><path class="cls-1" d="M341.83,413.48a33.2,33.2,0,0,0,7.8-6c-1.32.82-2.25,1.53-3,2.05a16.85,16.85,0,0,0-1.8,1.37A24.06,24.06,0,0,1,341.83,413.48Z" transform="translate(-107.18 -179.99)"/><path class="cls-2" d="M429.19,238.56c-14.42,18.45-23.51,40.83-28.72,64.05L512.9,427.68c20.17-31.47,34.86-74.05,36.59-112s-13.29-79.14-45.41-97.37c-9.15-5.19-19.56-8.38-30-7.72C456.18,211.75,440.52,224.07,429.19,238.56Z" transform="translate(-107.18 -179.99)"/><path class="cls-2" d="M376.86,347c5.76-18.39,6.49-37.92,9.77-56.91q.92-5.28,2.12-10.51c-.09-.43-.18-.85-.28-1.27L327.6,213.41c-2.31,13-14.32,23.34-22.39,33.13-9.07,11-18,22.23-25.1,34.62-12,20.88-18.57,46.43-10.57,69.11A64.15,64.15,0,0,0,291.72,380c13.87,10.34,32.64,15.15,49,9.52C359,383.18,371.11,365.35,376.86,347Z" transform="translate(-107.18 -179.99)"/></g><g id="Layer_4" data-name="Layer 4"><polyline class="cls-3" points="417.98 246.49 376.59 202.39 211.99 27.05"/><path class="cls-1" d="M524.91,426.71c-4.79-4.1-9.42-8.36-14-12.68q-3.44-3.22-6.79-6.52c-2.25-2.19-4.51-4.37-6.7-6.61-4.44-4.44-8.85-8.89-13.17-13.44s-8.61-9.12-12.73-13.85c-8.25-9.45-16-19.36-24.44-28.65s-17.26-18.2-26.33-26.89c-4.5-4.37-9.07-8.68-13.52-13.1s-8.85-8.9-13.24-13.38c-8.77-9-17.56-17.91-26.06-27.13-4.25-4.62-8.47-9.25-12.62-13.95l-6.24-7-6.17-7.1c-8.18-9.52-16.29-19.12-24-29.08l.51-.48c9.46,8.33,18.52,17,27.5,25.78l6.71,6.61,6.63,6.67c4.43,4.45,8.79,8.95,13.13,13.48,8.66,9.07,17,18.4,25.43,27.72,4.2,4.67,8.4,9.32,12.51,14.06s8.15,9.55,12.23,14.33c8.1,9.59,16.42,19,25.17,28s18.14,17.38,27.06,26.21q6.68,6.61,13,13.58c4.26,4.6,8.43,9.28,12.58,14,2.1,2.33,4.13,4.73,6.18,7.1s4.07,4.78,6.08,7.19c4,4.83,8,9.71,11.77,14.76Z" transform="translate(-107.18 -179.99)"/></g><g id="Layer_5" data-name="Layer 5"><text class="cls-4" transform="translate(141.17 146.93)"><tspan class="cls-5">s</tspan><tspan class="cls-6" x="19.88" y="0" xml:space="preserve"> o</tspan><tspan class="cls-7" x="58.2" y="0"> </tspan><tspan class="cls-6" x="70.39" y="0">p</tspan><tspan x="98.01" y="0"> </tspan><tspan class="cls-7" x="110.96" y="0">h</tspan><tspan x="140.11" y="0" xml:space="preserve"> i</tspan><tspan class="cls-6" x="167.67" y="0" xml:space="preserve"> e</tspan><tspan x="202.82" y="0" xml:space="preserve">  l</tspan><tspan class="cls-6" x="243.21" y="0" xml:space="preserve"> e e</tspan></text></g></svg>